<?xml version="1.0" encoding="UTF-8"?>
<svg width="335px" height="44px" viewBox="0 0 335 44" version="1.1" xmlns="http://www.w3.org/2000/svg" xmlns:xlink="http://www.w3.org/1999/xlink">
    <!-- Generator: Sketch 48.2 (47327) - http://www.bohemiancoding.com/sketch -->
    <title>message_hand_1</title>
    <desc>Created with Sketch.</desc>
    <defs>
        <polygon id="path-1" points="0 0.564995445 11.9672012 0.564995445 11.9672012 11.3808084 0 11.3808084"></polygon>
        <polygon id="path-3" points="0.580123473 0.376869565 7.65762341 0.376869565 7.65762341 10.5952293 0.580123473 10.5952293"></polygon>
    </defs>
    <g id="Assets" stroke="none" stroke-width="1" fill="none" fill-rule="evenodd">
        <g id="message_hand_1">
            <path d="M60.7884185,6.75202319 C60.7044086,5.79868986 60.8463343,4.68912464 61.6393362,4.15474783 C62.0275635,3.89329855 62.5157115,3.81677681 62.9822206,3.84547246 C65.0983774,3.97555942 66.5889154,6.00848696 67.3252743,8.00124058 C68.0616332,9.9939942 68.398309,12.1965449 69.6851869,13.8857623 C70.0377736,14.3493565 70.6894862,14.7887188 71.1509039,14.4335304 C73.8322176,12.3712696 76.5135314,10.3077333 79.1948452,8.24483478 C80.6618351,7.11677681 82.2675684,5.93770435 84.1157847,5.90326957 C85.9652739,5.86883478 87.9191389,7.6250087 87.3374345,9.38373333 C87.08986,10.1310957 86.4667871,10.6833275 85.8526243,11.1756174 C83.4004283,13.140313 80.6771096,14.7606609 78.3356538,16.8560812 C75.9948344,18.9521391 73.9996009,21.6661101 73.6260117,24.7894725 C73.2517861,27.9128348 74.9230726,31.4117913 77.921969,32.3421681 C79.8529222,32.9409507 81.9251647,32.4327188 83.9261262,32.1495884 C85.9283605,31.8658203 88.201081,31.8957913 89.6718895,33.2846609 C91.1420615,34.6748058 90.7939299,37.7847768 88.7961506,38.0889507 C83.0822092,38.9587478 76.4638893,39.5632696 72.2844001,35.5650087 C67.8446078,31.3161391 68.4785002,24.1141681 66.0937666,18.4451826 C64.4224801,14.4705159 61.1677356,11.0487188 60.7884185,6.75202319" id="Fill-1" fill="#000000"></path>
            <path d="M299.296085,27.8786957 C298.925678,30.5327246 299.222258,33.5055942 301.085749,35.4275652 C302.219245,36.5970725 303.99618,37.6090725 303.840889,39.2313333 C303.729513,40.3855362 302.580742,41.1922029 301.443427,41.4064638 C299.466014,41.7775942 297.410318,40.8108696 296.047068,39.3282609 C294.683181,37.8462899 293.912455,35.9141159 293.354935,33.9768406 C291.829393,28.6789855 291.823028,22.5865797 294.970215,18.0635072 C295.301163,17.5884348 294.862657,16.8895362 294.302591,16.7473333 C293.742526,16.6051304 293.16273,16.8353333 292.63385,17.0674493 C290.70417,17.9149275 288.675842,18.875913 286.587052,18.5953333 C284.498898,18.3153913 282.529759,16.1466377 283.324034,14.1908696 C283.926741,12.7082609 285.68331,12.1362609 287.231127,11.7396232 C291.397888,10.6715072 295.564648,9.60275362 299.732045,8.53463768 C301.505161,8.07997101 303.35465,7.62211594 305.146224,7.99834783 C306.938434,8.37394203 308.642178,9.85208696 308.631359,11.6866957 C308.619903,13.6564928 306.811146,15.0491884 305.356885,16.3749275 C302.091321,19.3528986 299.907702,23.4971884 299.296085,27.8786957" id="Fill-3" fill="#000000"></path>
            <path d="M252.461304,9.61832464 C253.03728,8.33913623 254.833945,7.99096232 256.086455,8.61716522 C257.340238,9.24273043 258.110328,10.5531652 258.576838,11.8763536 C259.043983,13.1989043 259.280102,14.6011652 259.840804,15.8873681 C260.822191,14.3760638 261.900954,12.8201217 263.505414,12.0026145 C265.109238,11.1851072 267.386414,11.4031942 268.322614,12.9431942 C269.08825,14.2019768 268.710842,15.8790783 267.901929,17.1104406 C267.09238,18.3418029 265.917515,19.2766435 264.931036,20.3709043 C261.868496,23.7678319 260.79737,28.4662667 259.835076,32.9408754 C259.608504,33.9956 259.833166,35.5942667 260.901746,35.4692812 C263.124824,35.2097449 265.379088,35.2173971 267.600257,35.4928754 C268.899227,35.653571 270.426679,36.1127014 270.781175,37.3746725 C271.033841,38.2731652 270.531691,39.247542 269.799151,39.8246435 C269.067247,40.4017449 268.144412,40.6670203 267.247034,40.919542 C263.503505,41.9742667 259.187818,42.9480058 255.968714,40.7620348 C253.613257,39.1627304 252.496308,36.1713681 252.488671,33.319658 C252.48167,30.4685855 253.427417,27.7074261 254.458447,25.0502087 C255.191623,23.1601217 255.947075,20.9167594 254.834581,19.2230783 C253.300129,16.8847014 252.397023,14.1343826 252.247461,11.3400638 C252.216275,10.7565855 252.221367,10.1507884 252.461304,9.61832464" id="Fill-5" fill="#000000"></path>
            <path d="M177.124151,23.2183536 C176.608,20.9871072 178.994006,19.2271072 181.103798,18.3439188 C184.027595,17.1208464 187.18751,16.2453101 190.341061,16.5526725 C193.494612,16.8593971 196.644344,18.5205565 198.110698,21.3352812 C199.614601,24.2227014 199.118179,27.8281507 197.630187,30.7238609 C196.141558,33.6189333 193.782919,35.9541217 191.463738,38.2363826 C190.414888,39.2687884 189.366038,40.3005565 188.317188,41.3329623 C187.138505,42.4929043 185.741523,43.7382957 184.093785,43.6145855 C182.311758,43.4813101 181.000696,41.6409623 180.979693,39.8503536 C180.958691,38.0597449 181.947715,36.3973101 183.178587,35.099629 C184.409458,33.8019478 185.894268,32.7746435 187.198966,31.5509333 C188.916713,29.9407884 190.314331,27.9888464 191.287445,25.8430493 C191.691583,24.951571 191.9888,23.8082087 191.344724,23.0723246 C190.885216,22.5468754 190.105579,22.4467594 189.411862,22.5130783 C187.090135,22.7337159 185.161728,24.3464116 182.977472,25.1651942 C180.793853,25.9833391 177.649849,25.4948754 177.124151,23.2183536" id="Fill-7" fill="#000000"></path>
            <path d="M132.544334,38.0108348 C128.282108,32.3718203 126.450439,24.9517623 127.598573,17.972342 C127.727134,17.1899072 127.970253,16.3060812 128.686246,15.9655594 C129.255222,15.6945449 129.941938,15.874371 130.491185,16.1836464 C132.913468,17.546371 133.39207,20.7979072 133.388887,23.5807478 C133.385069,26.3635884 133.296604,29.4888638 135.213555,31.5026609 C135.492315,31.7947188 135.872905,32.0708348 136.264951,31.9758203 C138.225817,31.5026609 140.388434,32.9929217 140.777934,34.9754725 C141.166798,36.9592986 139.84237,39.0891536 137.934965,39.7472406 C136.02756,40.4046899 133.76184,39.6216174 132.544334,38.0108348" id="Fill-9" fill="#000000"></path>
            <path d="M212.527294,36.9864 C211.806846,35.9508058 211.244871,34.6588638 211.601277,33.4472696 C211.957045,32.2369507 213.616876,31.4398493 214.547349,32.2905159 C218.064942,35.5050667 222.964879,37.1451826 227.70507,36.6949797 C229.326715,36.5406609 230.937539,36.1542261 232.563002,36.2505159 C234.189102,36.3461681 235.908121,37.0469797 236.661664,38.4932406 C237.41457,39.9401391 236.664846,42.1216464 235.052748,42.3537623 C231.01964,42.9340522 226.913341,43.4441971 222.885324,42.8307478 C218.857944,42.2166609 214.857294,40.3355014 212.527294,36.9864" id="Fill-11" fill="#000000"></path>
            <path d="M217.326674,11.5053623 C221.550714,9.10704348 227.155824,9.41249275 231.096013,12.2552754 C232.135952,13.0051884 233.140888,14.116029 232.990689,15.3907536 C232.879949,16.3313333 232.17032,17.0697681 231.684718,17.8828116 C231.197206,18.6984058 230.915264,19.6377101 230.327195,20.3837971 C229.256706,21.7414203 227.181918,22.1782319 225.657012,21.3677391 C224.13147,20.5566087 223.330195,18.59 223.852074,16.9409565 C223.559949,16.1311014 222.371719,16.6769565 221.629632,17.1124928 C219.451741,18.3904058 216.211634,16.9109855 215.745762,14.4253043 C215.642659,13.8775362 215.661752,13.2883188 215.912508,12.7902899 C216.203361,12.211913 216.764699,11.8248406 217.326674,11.5053623" id="Fill-13" fill="#000000"></path>
            <path d="M163.088399,29.4444812 C161.73215,30.6720174 159.401513,29.9386841 158.339298,28.4490609 C157.277083,26.9600754 157.133884,25.0234377 157.026963,23.1958435 C156.825212,19.7606551 156.624097,16.3254667 156.422346,12.8902783 C156.406436,12.6122493 156.39307,12.3176406 156.525449,12.072771 C156.665466,11.8145101 156.941044,11.660829 157.214712,11.5562493 C159.325777,10.7483072 161.760153,12.1952058 162.842098,14.182858 C163.924043,16.1711478 163.996597,18.5350319 164.043056,20.7981623 C164.075515,22.3764232 164.107973,23.9540464 164.139795,25.5310319 C164.169071,26.9269159 164.121975,28.5083652 163.088399,29.4444812" id="Fill-15" fill="#000000"></path>
            <path d="M315.37423,11.2186377 C315.091651,10.0025797 314.808436,8.78715942 314.525858,7.57110145 C314.301195,6.60692754 314.094353,5.52414493 314.614323,4.6824058 C315.330316,3.52310145 317.1378,3.50205797 318.218472,4.32976812 C319.299144,5.15747826 319.79302,6.53614493 320.090236,7.86634783 C320.388089,9.19655072 320.5542,10.5854203 321.198275,11.7855362 C321.729701,12.773942 322.595257,13.6807246 322.582528,14.8043188 C322.559616,16.7957971 319.632637,17.5756812 318.010993,16.4233913 C316.388712,15.2717391 315.825464,13.1584638 315.37423,11.2186377" id="Fill-17" fill="#000000"></path>
            <path d="M39.9021742,31.8637797 C39.1136274,30.7529391 38.4103633,29.1765913 39.277192,28.1256928 C40.135747,27.0830841 41.8108521,27.463142 43.0067193,28.0899826 C45.1426057,29.2103884 47.0105515,30.8396638 48.4126247,32.8056348 C49.1935343,33.8986203 49.8516113,35.1969391 49.6867738,36.5309681 C49.5212999,37.8649971 48.2146925,39.1084754 46.9189044,38.7590261 C46.4549411,38.6334029 46.0609859,38.3324174 45.6873967,38.0295188 C43.4910488,36.2510261 41.5384566,34.1702725 39.9021742,31.8637797" id="Fill-19" fill="#000000"></path>
            <g id="Group-23" transform="translate(4.000000, 26.405803)">
                <mask id="mask-2" fill="white">
                    <use xlink:href="#path-1"></use>
                </mask>
                <g id="Clip-22"></g>
                <path d="M8.76776242,11.1747246 C4.97586412,10.0932174 1.75166863,7.17646377 0.291043151,3.50788406 C0.0937473345,3.0124058 -0.0755452044,2.47547826 0.0345585897,1.95449275 C0.252220425,0.91826087 1.52000515,0.397913043 2.55485353,0.612811594 C3.58970191,0.827072464 4.4310731,1.55785507 5.2208928,2.26121739 C6.84762862,3.71194203 8.47500089,5.1613913 10.1023732,6.61211594 C10.7362655,7.17646377 11.3873417,7.76504348 11.7399284,8.53791304 C12.0925151,9.31142029 12.0645119,10.325971 11.4452576,10.9062609 C10.7591773,11.5496812 9.67150455,11.4323478 8.76776242,11.1747246" id="Fill-21" fill="#000000" mask="url(#mask-2)"></path>
            </g>
            <path d="M23.0819422,31.4920116 C22.5524257,30.5635478 22.1629255,29.3219826 22.8350042,28.4917217 C23.6623737,27.4707942 25.2948375,27.945229 26.4467905,28.5733449 C28.7106009,29.8059826 30.8267576,31.3115478 32.7354355,33.0460406 C33.2783172,33.5396058 33.8332913,34.1001275 33.9707619,34.8219826 C34.1916059,35.9723594 33.1968532,37.0902145 32.0589018,37.3618667 C30.9215869,37.6335188 29.7282654,37.2579246 28.6781425,36.7439536 C26.3468697,35.6037797 24.3694565,33.7481275 23.0819422,31.4920116" id="Fill-24" fill="#000000"></path>
            <path d="M101.834922,32.4273623 C101.758549,31.9089275 101.745184,31.3401159 102.036036,30.903942 C102.700478,29.9085217 104.240658,30.3478841 105.278052,30.9434783 C106.977342,31.9197681 108.593895,33.0401739 110.104799,34.2887536 C111.324214,35.2956522 112.555722,37.0403478 111.590882,38.2946667 C111.076003,38.9648696 110.133439,39.1262029 109.290158,39.0975072 C105.67519,38.9769855 102.361256,36.0124058 101.834922,32.4273623" id="Fill-26" fill="#000000"></path>
            <path d="M184.74467,12.8909159 C183.811652,12.0498145 183.29741,10.8414087 182.932094,9.63810435 C182.820718,9.26952464 182.718887,8.88308986 182.785714,8.50366957 C182.921911,7.72761159 183.741644,7.22511884 184.526372,7.18366957 C185.3111,7.14158261 186.067188,7.45022029 186.792728,7.75248116 C188.124793,8.30853913 189.456221,8.86523478 190.788286,9.42065507 C191.630294,9.77137971 192.499668,10.1418725 193.120832,10.8101623 C193.742632,11.4790899 194.046213,12.5350899 193.586705,13.3245391 C193.017093,14.3001913 191.674208,14.4003072 190.545803,14.3862783 C188.502201,14.3601333 186.263211,14.2606551 184.74467,12.8909159" id="Fill-28" fill="#000000"></path>
            <g id="Group-32" transform="translate(322.219058, 2.260875)">
                <mask id="mask-4" fill="white">
                    <use xlink:href="#path-3"></use>
                </mask>
                <g id="Clip-31"></g>
                <path d="M1.5606099,6.30864348 C1.2500281,5.09449855 0.938173427,3.87971594 0.627591626,2.66557101 C0.24445588,1.16957101 2.26323759,-0.0248057971 3.71177074,0.503831884 C5.15966745,1.03310725 6.00167508,2.51762899 6.65466059,3.91670145 C7.22109051,5.12957101 7.75060702,6.42661449 7.64432186,7.76128116 C7.53803669,9.09594783 6.59165321,10.4573971 5.26086111,10.5842957 C3.2102575,10.7800638 2.07294259,8.30777391 1.5606099,6.30864348" id="Fill-30" fill="#000000" mask="url(#mask-4)"></path>
            </g>
        </g>
    </g>
</svg>