<?xml version="1.0" encoding="UTF-8"?>
<svg width="362px" height="41px" viewBox="0 0 362 41" version="1.1" xmlns="http://www.w3.org/2000/svg" xmlns:xlink="http://www.w3.org/1999/xlink">
    <!-- Generator: Sketch 48.2 (47327) - http://www.bohemiancoding.com/sketch -->
    <title>message_hand_2</title>
    <desc>Created with Sketch.</desc>
    <defs>
        <polygon id="path-1" points="0.192983917 0.185274992 61.1563982 0.185274992 61.1563982 38.3961768 0.192983917 38.3961768"></polygon>
        <polygon id="path-3" points="1.9951661 2.11237849 38.0408462 2.11237849 38.0408462 41.0635721 1.9951661 41.0635721"></polygon>
        <polygon id="path-5" points="0.272917709 0.282294687 6.63421171 0.282294687 6.63421171 16.4461569 0.272917709 16.4461569"></polygon>
    </defs>
    <g id="Assets" stroke="none" stroke-width="1" fill="none" fill-rule="evenodd">
        <g id="message_hand_2">
            <g id="Page-1" transform="translate(0.000000, -2.000000)">
                <g id="Group-3" transform="translate(127.216249, 4.469454)">
                    <mask id="mask-2" fill="white">
                        <use xlink:href="#path-1"></use>
                    </mask>
                    <g id="Clip-2"></g>
                    <path d="M47.7536952,23.6625923 C46.9709683,25.1494033 46.1877788,26.6366769 45.4050519,28.1234879 C45.1594089,28.5907185 44.965115,29.2781488 45.4147666,29.5543237 C45.7293377,29.7467672 46.1364297,29.5686645 46.4375853,29.356329 C48.1487595,28.1507816 48.9115944,25.7577283 48.2139867,23.7851825 C48.1936321,23.5802487 47.8730472,23.4951295 47.7536952,23.6625923 M9.12806652,26.6889512 C9.52359341,25.2238826 7.03339317,24.5526434 5.94257166,25.6078444 C4.85267536,26.663508 4.72083307,28.3335103 4.17172148,29.748155 C3.6230725,31.1632623 2.01644693,32.5149928 0.714215149,31.7355041 C-0.327570275,27.7487782 1.01074466,23.2337579 4.05699556,20.4590559 C2.61737023,20.3938286 0.875664134,20.1269058 0.333491613,18.7913665 C-0.289636703,17.253669 1.27072841,15.6761875 2.83201873,15.1136604 C4.39330906,14.5502081 6.20070499,14.4072633 7.39700033,13.257691 C8.52575541,12.1728833 8.8000799,10.4723491 9.70771001,9.19694834 C10.6158027,7.92154762 12.9482548,7.39371584 13.5265105,8.84860712 C14.0423146,10.1471381 15.9385306,9.93619039 17.2352111,9.41622289 C18.5328168,8.89671799 20.2958027,8.42254834 21.095646,9.56795718 C21.9260211,10.7568508 20.7089086,12.3445096 19.4224054,13.0134358 C17.4970453,14.0154372 15.2580393,14.275421 13.3155628,15.2441149 C11.3726238,16.2123462 9.67717811,18.3690086 10.3706223,20.4252857 C11.8324527,19.1804169 13.5288235,17.8569053 15.4384551,18.0549001 C17.347624,18.2528948 18.7576426,21.0345359 17.186175,22.1373851 C14.8305927,23.7902712 13.2336818,26.4826296 12.9121717,29.3415256 C16.0056082,28.6800011 19.0990448,28.0175514 22.1924813,27.3555643 C24.2140632,26.9230291 26.8032608,25.6277364 26.2402711,23.6385369 C25.8007968,22.0832604 26.8823662,20.1833436 28.4913048,20.0320719 C30.1007059,19.8808002 31.5366304,21.9139471 30.6599948,23.2716915 C31.7683953,24.181172 33.5101014,22.6957488 33.366694,21.2686138 C33.2237492,19.8419414 32.0274539,18.7830396 30.9167404,17.8763347 C31.7281487,16.5051749 33.7469549,16.2475041 35.1551232,16.9932227 C36.5628288,17.7389412 37.4385392,19.2114114 37.995515,20.7037737 C38.9202615,23.1819462 39.1534142,25.9131634 38.6621282,28.5116131 C39.9546453,27.7825483 40.3899561,26.1638951 40.7063776,24.7136298 C41.2050653,22.4251252 41.7042156,20.1366205 42.2033659,17.8481158 C42.3019007,17.3943008 42.398585,16.908566 42.2274214,16.4778812 C41.966975,15.8232958 41.2115418,15.5480461 40.6652058,15.1048709 C39.5568054,14.2064929 39.3703757,12.3778172 40.2738424,11.2745053 C39.9060718,10.1480633 38.0533406,11.162555 38.032986,12.3468227 C38.0121688,13.5310903 38.7403083,14.7065684 38.4169478,15.846426 C37.0518018,16.2479667 36.0664541,14.5539089 34.796142,13.912739 C33.078954,13.0453555 31.10317,14.2101937 29.293461,14.8633914 C27.4842147,15.516589 24.7118257,14.9906076 24.7460584,13.0670979 C24.7997205,9.99262815 31.5574476,10.5713464 31.1646964,7.5218573 C31.0263776,6.44953998 29.946196,5.19033042 30.7909119,4.51539039 C31.5056359,3.944999 32.4377841,4.81330772 33.1080981,5.43597343 C34.7720866,6.9815352 37.4297497,7.19664631 39.4726113,6.20435957 C41.5150104,5.21207283 42.9370567,3.17291202 43.4907944,0.970451804 C43.7443016,-0.0375634886 45.3398247,-0.0389513023 46.00505,0.759966738 C46.6698128,1.55980999 46.6804527,2.69550413 46.7165358,3.73451393 C46.752619,4.77352373 46.9136054,5.93836196 47.7393545,6.56935455 C48.405505,7.07868215 48.0863079,8.20281118 47.4363485,8.73341859 C46.7863891,9.264026 45.9245568,9.46942241 45.2496168,9.96811011 C43.3330462,11.3841426 44.2462276,15.0553722 46.6031977,15.4078769 C47.1407442,14.1310884 47.7361162,12.7816709 48.8852259,12.0077335 C50.0347982,11.2328709 51.907884,11.3776661 52.481051,12.6396513 C53.089376,13.9798167 51.9490558,15.3958492 51.3023346,16.7175103 C50.6556135,18.0400967 51.2227666,20.3170363 52.6480512,19.9501909 C54.2259953,19.5435615 55.9968455,20.9290621 55.9825048,22.5583553 C55.968164,24.1885737 54.1727958,25.5416919 52.6017908,25.1077689 C52.3431948,26.1865627 52.4745745,27.3551017 52.9667858,28.3497015 C54.5493559,27.9148532 55.4528226,26.3114659 56.6079461,25.1457025 C57.7630696,23.979939 59.9678429,23.3322927 60.8703843,24.7029899 C61.6036125,25.8155538 60.8070075,27.3120795 59.8346128,28.2229479 C58.8626806,29.1342788 57.6330778,29.9359725 57.2856617,31.2224757 C57.9397846,32.1347319 59.2771743,32.4039677 59.8285989,33.3823763 C60.7218883,34.9677221 58.5494973,36.8482095 56.7772594,36.4341784 C55.0050214,36.0201474 53.850823,34.3621727 52.868251,32.8300265 C51.4938529,33.560479 52.6105803,35.8670253 51.7394959,37.1572293 C51.0400378,38.1943887 49.3284011,37.9815906 48.4762835,37.0660962 C47.6241659,36.1496767 47.3993401,34.8317163 47.2129105,33.5947118 C46.3492278,35.2318692 44.2203217,35.9479811 42.4258787,35.4937034 C40.6314357,35.040351 39.1973616,33.6141412 38.3609726,31.9621804 C39.1039155,34.4292504 37.769764,37.3450468 35.4178825,38.3965469 C33.8154204,36.7492121 33.0442586,34.3311782 33.3976885,32.0607151 C32.0519719,32.1888566 30.7432637,32.6884695 29.6542926,33.4901632 C30.2394873,34.4209235 30.8468871,35.4354152 30.7687069,36.5322506 C30.6905267,37.6286234 29.5585334,38.695852 28.5449669,38.2707185 C28.1466644,38.1037182 27.8579991,37.7521388 27.6128187,37.3963959 C26.4974792,35.7768174 25.9437416,33.7779032 26.0677196,31.8155347 C26.1440493,30.6072117 24.299645,30.5271811 23.1570118,30.927334 C18.474066,32.5681923 13.7915829,34.2090506 9.10909974,35.8494463 C7.92390691,36.2644026 6.69939269,36.6858353 5.44619699,36.6071925 C4.19253869,36.5290124 2.89076951,35.8212274 2.50727035,34.6253947 C2.12423379,33.4290994 3.09524072,31.8937149 4.34242256,32.0398979 C6.94642351,32.3452169 8.44479962,29.2198606 9.12806652,26.6889512" id="Fill-1" fill="#000000" mask="url(#mask-2)"></path>
                </g>
                <g id="Group-6" transform="translate(255.357706, 0.306013)">
                    <mask id="mask-4" fill="white">
                        <use xlink:href="#path-3"></use>
                    </mask>
                    <g id="Clip-5" transform="translate(20.018006, 21.587975) rotate(-6.000000) translate(-20.018006, -21.587975) "></g>
                    <path d="M16.2693727,20.4043634 C17.1464709,21.0256413 18.4075309,20.6412169 19.2231027,19.9417589 C18.5435366,19.5628857 17.9338238,18.960112 17.1571108,18.915702 C16.3803978,18.8717546 15.6346793,19.9547118 16.2693727,20.4043634 M18.0744556,2.97897558 C19.8374415,2.20318777 21.822015,1.93857797 23.7265579,2.22400497 C24.4250908,2.3285536 25.143053,2.52145969 25.6634831,2.99840497 C26.5549221,3.81536459 26.5997947,5.26285419 26.096481,6.36246519 C25.5931672,7.46161357 24.6600939,8.29476435 23.7524638,9.09414499 C28.6315538,9.1353168 32.9717096,13.7960575 32.6668532,18.6654329 C32.3962296,22.9856967 31.8804255,27.290232 31.1226793,31.5522076 C30.8765737,32.9353952 28.992848,33.4646148 27.7225359,32.8636915 C26.4522238,32.2627682 25.6824499,30.9688633 24.9880805,29.7466621 C24.7632547,29.3520604 24.5310272,28.9102731 24.6249359,28.4657101 C24.7188446,28.0211471 25.3299452,27.697324 25.6431285,28.0266984 C26.2033426,28.6165192 27.0064241,27.582598 27.1428924,26.7799792 C27.6249264,23.9409751 27.9418105,21.0732896 28.0926195,18.1972771 C28.1583094,16.9389928 28.1509077,15.5507166 27.3362611,14.5889617 C26.5216145,13.6267443 24.6087448,13.6392346 24.264567,14.8517211 C25.7925498,15.3864919 26.0127495,17.5246501 25.433106,19.0364418 C24.853,20.5477708 23.7589402,21.8883988 23.5762114,23.4968747 C23.4485326,24.6205412 23.7857713,25.7557727 23.6802974,26.8822148 C23.574361,28.0081942 22.7338086,29.2387223 21.6096795,29.1101182 C19.3766874,28.8566109 19.799508,24.2680365 17.5521751,24.2879285 C15.0494845,24.3101335 16.3295113,29.6370248 13.8781698,30.1426516 C12.5764007,30.4109622 11.6026181,28.8542979 11.5706984,27.5252351 C11.5387787,26.1966348 11.9995328,24.8375027 11.6322248,23.559789 C11.5582081,23.3039686 11.4388561,23.0402841 11.2094043,22.9042783 C10.8226669,22.6748265 10.3272174,22.907054 9.97286232,23.1836915 C8.43100139,24.3869259 7.71303914,26.5519151 8.23115622,28.4384164 C8.7488107,30.3244551 10.4710874,31.8200556 12.4112508,32.0675491 C20.3698994,33.082966 28.2790492,34.4897464 36.0998415,36.2809512 C36.5259003,36.3785608 36.9630616,36.4821842 37.3248184,36.7282898 C38.8130172,37.7423189 37.7809464,40.3398434 36.0609827,40.8764647 C34.3414817,41.4135486 32.5183572,40.6798578 30.807183,40.1159428 C21.866425,37.1696145 11.3551247,38.5518769 3.70780903,33.0621488 C2.98198251,32.5417187 2.25661859,31.9051749 2.04104487,31.0387166 C1.82547116,30.1722583 2.39123651,29.0768107 3.28406327,29.0731099 C3.59539613,29.0717221 3.92939661,29.1938497 4.20279589,29.0458162 C4.53448335,28.865863 4.56825348,28.412048 4.55992659,28.0350253 C4.50811489,25.6327199 4.45630318,23.2304145 4.40495407,20.8281092 C4.37118394,19.2978133 6.05645228,18.188025 7.58582289,18.2490888 C9.1147309,18.3101526 10.4771013,19.1821622 11.7538898,20.0259529 C11.9236657,18.2365985 12.0939041,16.4481694 12.26368,14.6592776 C12.3312203,13.944091 12.4417827,13.147486 13.0043099,12.7019978 C14.2898879,11.6833426 16.7208747,13.3353034 17.6345187,11.9738583 C18.1142396,11.2591342 17.6780035,10.3195844 17.3884131,9.50956387 C17.0988227,8.69908072 17.170989,7.50463579 18.0133918,7.32838346 C18.7234898,7.18035001 19.5575658,7.91774165 20.1085278,7.44542241 C20.7279553,6.9143524 19.8069096,5.95306017 18.9927256,5.91003795 C18.178079,5.86655312 17.1848671,6.06269744 16.6917307,5.41320067 C16.0389957,4.55368143 17.0867949,3.41336124 18.0744556,2.97897558" id="Fill-4" fill="#000000" mask="url(#mask-4)" transform="translate(20.018006, 21.587901) rotate(-6.000000) translate(-20.018006, -21.587901) "></path>
                </g>
                <path d="M58.3461827,15.8757551 C59.3555858,16.6399778 60.7739313,16.2879358 62.0225009,16.0779133 C63.2710706,15.8678908 64.8832474,16.0469188 65.313007,17.2376629 C65.6687499,18.2262488 64.8985134,19.3170703 63.945548,19.7597828 C62.9925827,20.2015702 61.9036116,20.1950937 60.8613635,20.3264734 C54.6458089,21.1087377 49.8698797,27.8257556 51.1721114,33.9534153 C52.1227638,32.3042302 53.5739542,30.9478736 55.283278,30.1105594 C54.4996259,29.1548184 55.6015499,27.8234426 56.6017009,27.0966908 C59.1594414,25.2379458 61.7167193,23.380126 64.2739972,21.5213809 C65.0081506,20.9879979 65.8436144,20.4273212 66.7424551,20.552687 C68.1853186,20.7548452 68.7950314,22.6996347 68.1954959,24.0273097 C67.5959604,25.3549848 66.2562577,26.1654679 64.98317,26.8737155 C64.2735346,27.2687797 63.5222649,27.6939133 63.1299762,28.4049365 C62.7367623,29.1164223 62.9019122,30.1979917 63.6610462,30.4880447 L69.8099858,32.8380758 C70.6264828,33.1503339 71.5220852,33.5347582 71.873202,34.3346015 C72.3436708,35.4041432 71.5109827,36.6915716 70.4206238,37.1093035 C69.3293396,37.527498 68.1057506,37.306373 66.9751451,37.0107687 C64.084792,36.2539477 61.314716,35.038223 58.8009229,33.4223453 C57.2530481,32.4263578 55.320749,34.1273546 54.6222161,35.830202 C53.9236832,37.5330493 53.4976245,39.622634 51.8484393,40.441444 C50.023927,41.3467611 47.7321841,39.9566345 46.926327,38.0853991 C46.1213951,36.2141637 46.382304,34.077856 46.6566285,32.0590497 C44.9204737,32.0497977 44.3806142,34.7490951 42.7004345,35.1890321 C41.2524823,35.5683678 39.9446993,33.8497919 40.1621234,32.3689948 C40.3800101,30.8877351 41.5601143,29.7492653 42.7443819,28.8337709 C43.9286496,27.9178139 45.2355074,27.0458043 45.9178491,25.7130407 C44.9477674,25.5909131 43.9462285,25.3003974 43.2685129,24.5963133 C42.5907972,23.891304 42.368747,22.6825183 42.996964,21.9340242 C43.5761449,21.2438182 44.5897114,21.1762779 45.4358151,20.8667955 C46.2814562,20.5577757 47.090089,19.5562368 46.5548555,18.8317981 C45.4348899,17.3153805 46.6089803,14.7520887 48.4880799,14.6105317 C47.0720474,14.0845503 47.2524632,11.8473948 48.3867695,10.8495568 C49.5206132,9.85171881 51.1161363,9.62411737 52.5127394,9.04817472 C53.9093425,8.47223207 55.2906797,7.15242131 54.9548288,5.67948846 C54.749895,4.77972263 55.9725588,4.12652502 56.8501196,4.41426504 C57.7272178,4.70154246 58.3151881,5.49814748 58.9813387,6.13746695 C59.6474892,6.77632382 60.6319117,7.30508081 61.4627494,6.90261486 C62.4957454,6.40207675 63.8877224,6.86745692 64.4109282,7.88842514 C64.9345965,8.90939336 64.5006735,10.3115477 63.4912703,10.8578837 C64.5325932,11.0665183 64.7601946,12.6130053 64.0977449,13.4433805 C63.4352952,14.273293 62.3074653,14.5420662 61.2624417,14.7317341 C60.217418,14.921402 59.0928264,15.1203219 58.3461827,15.8757551" id="Fill-7" fill="#000000"></path>
                <path d="M241.988435,21.332592 C242.116114,21.7493987 242.403854,22.1153189 242.779026,22.3378317 C243.147259,22.2425351 243.306395,21.7669777 243.187043,21.4056835 C243.067691,21.044852 242.755433,20.783943 242.441325,20.5702197 C242.28959,20.8107741 242.137394,21.0517911 241.985659,21.2923454 L241.988435,21.332592 Z M236.716131,17.4837222 C238.638253,17.356506 240.546034,17.0063144 242.388125,16.4433246 C242.763297,16.3285987 243.197221,16.13523 243.254584,15.7475674 C243.350805,15.0966828 242.395989,14.9042393 241.74418,14.9930594 C239.808642,15.2553562 237.569636,15.7272128 236.716131,17.4837222 Z M240.632541,4.06772798 C241.353741,4.28977816 242.11195,3.93588569 242.860444,3.83873873 C244.026208,3.68654184 245.297908,4.26387231 245.811399,5.32184889 C246.323965,6.37982547 245.901144,7.84211842 244.83299,8.33432965 C244.133532,8.65722762 243.31796,8.552679 242.561139,8.70024984 C241.805243,8.8482833 240.998461,9.47326203 241.160835,10.2268448 C242.271549,10.7750312 243.566842,9.87341496 244.802921,9.96084722 C246.572383,10.0857504 247.531825,12.0906785 247.856111,13.8351602 C248.659192,18.1642135 247.826042,22.6107684 246.995204,26.9342704 C246.850409,27.686928 246.69266,28.4701175 246.22728,29.078905 C245.762363,29.6881552 244.890816,30.0610145 244.206624,29.7154489 C243.191207,29.2024205 242.043485,29.9851473 241.049348,30.5379598 C238.839948,31.7671 236.057845,31.9081944 233.73557,30.9089686 C233.332179,30.7354919 232.930638,30.5203808 232.655851,30.1780534 C232.166415,29.5692659 232.180756,28.7111344 232.219152,27.9307206 C232.357008,25.1370518 232.494402,22.3433829 232.631795,19.5497141 C232.686845,18.4329868 232.742821,17.3116334 232.978286,16.2189614 C233.156389,15.3969132 233.436727,14.5859674 233.445979,13.745415 C233.455694,12.9039373 233.123081,11.9902933 232.378751,11.5984673 C231.454467,11.1127325 231.364259,9.73139536 231.925861,8.85152153 C232.487463,7.97118509 233.475586,7.47573563 234.417449,7.0246962 C235.358849,6.57411938 236.348823,6.08653419 236.922453,5.21406203 C237.44057,4.4267091 237.770407,3.24290409 238.711807,3.19433061 C239.424218,3.15732225 239.950662,3.85770552 240.632541,4.06772798 Z" id="Fill-9" fill="#000000"></path>
                <path d="M84.1747819,27.7015463 C83.8602108,28.5069408 83.7787924,29.6856572 84.5915886,29.9780232 C87.2733071,27.1908309 89.4415346,23.9105021 90.9547141,20.3507601 C87.8862582,21.843585 85.4150247,24.5229905 84.1747819,27.7015463 M87.018412,33.9050732 C85.2799442,35.1009059 82.737007,35.8549513 81.1965339,34.4125503 C80.5414859,33.7991367 80.2250644,32.9058474 80.041873,32.0273613 C79.2022457,27.9971506 80.7778768,23.7148204 83.51372,20.6385002 C86.2491007,17.5626426 90.0202529,15.5702048 93.9176962,14.2453054 C95.7708899,13.6147754 97.7221559,13.1160877 99.669721,13.3145451 C101.617286,13.5130024 103.574103,14.5228681 104.467855,16.2645742 C104.9411,17.1870077 105.089133,18.241746 105.132155,19.2775176 C105.389364,25.5208285 102.040107,31.4602082 97.5824493,35.840148 C96.3028852,37.0975071 94.2577105,38.2914894 92.8685091,37.1557953 C91.9183193,36.3786196 91.9243332,34.8635898 92.4975002,33.7792447 C93.0711298,32.6944371 94.06758,31.910785 94.9580938,31.0665317 C97.594477,28.5670794 99.4740393,25.2793489 100.291462,21.7390364 C100.611584,20.3502975 100.594467,18.5553919 99.3310945,17.8961805 C98.3721153,17.3965676 97.1415872,17.8864658 96.4430543,18.710827 C95.7435963,19.5356509 95.4410529,20.6135195 95.1167671,21.6442024 C93.6211666,26.4053284 91.1305038,31.0776342 87.018412,33.9050732" id="Fill-11" fill="#000000"></path>
                <path d="M336.327656,25.808661 C336.860577,25.4843752 336.523801,24.4629444 335.902523,24.5189196 C335.547705,24.6391968 335.334444,25.0698816 335.452871,25.4251619 C335.571298,25.7799795 336.00152,25.9955533 336.3568,25.8789769 L336.327656,25.808661 Z M339.053785,19.2725215 C338.810455,18.7932632 338.149393,18.7627313 337.613234,18.7988144 C336.559421,18.8695929 335.349248,19.0278037 334.776081,19.9150792 C335.531051,20.1898663 336.311465,20.3961879 337.104369,20.5308058 C337.579464,20.611299 338.089717,20.6617229 338.526416,20.4572517 C338.963114,20.2523179 339.271209,19.7032063 339.053785,19.2725215 Z M340.801967,9.69845792 C342.100961,9.84186533 342.276751,11.8898156 343.486462,12.3852651 C344.081834,12.6295203 344.779904,12.4231987 345.39193,12.6211934 C346.317139,12.9204985 346.729782,14.1325224 346.359698,15.0313631 C345.989152,15.9302037 345.030173,16.4862543 344.065642,16.6065315 C343.071043,16.7314347 342.885076,18.0706749 342.895253,19.0726763 C342.956779,24.8163743 340.871358,30.3394099 338.816469,35.7028469 C338.450086,36.6581253 338.061961,37.6476364 337.319943,38.3521831 C336.577925,39.0571924 335.372841,39.3865669 334.514709,38.8291284 C333.537688,38.1935098 333.457195,36.7585105 333.849946,35.6616751 C334.242235,34.5648398 334.98379,33.6127996 335.331206,32.5011609 C335.679085,31.3890596 335.4686,29.9387944 334.421263,29.4276163 C331.550339,28.0263872 330.628831,23.7431318 332.66938,21.2848512 C332.976549,20.9147676 333.355422,20.5368197 333.36745,20.055711 C333.390117,19.1064465 332.09575,18.7636565 331.558203,17.9809296 C330.954042,17.1001306 331.49714,15.8177908 332.384415,15.2224187 C333.271691,14.6275093 334.382404,14.5123208 335.433904,14.3240407 C336.485867,14.1352981 337.603982,13.803148 338.240989,12.9450166 C338.680926,12.3528828 338.822945,11.5960617 339.135203,10.9275982 C339.447461,10.2591346 340.068277,9.61750213 340.801967,9.69845792 Z" id="Fill-13" fill="#000000"></path>
                <path d="M120.131414,40.147135 C118.303201,35.7824612 117.354861,31.0514045 117.35995,26.3189601 C115.53405,28.5144812 113.70815,30.7109276 111.88225,32.9069114 C111.202683,33.7234084 109.774161,33.5531699 109.092744,32.7380607 C108.410402,31.9234141 108.383571,30.712778 108.747641,29.71494 C109.111711,28.7166394 109.807006,27.8802504 110.485184,27.0628282 C113.96397,22.869318 117.339133,18.5906886 120.606971,14.2315661 C121.157008,13.4988005 121.721386,12.7466055 122.493472,12.2539317 C123.266485,11.762183 124.30642,11.5789916 125.097011,12.0420588 C126.564392,12.9020406 126.188295,15.202573 125.123379,16.5283976 C124.058001,17.8546848 122.501337,18.833556 121.859704,20.4087245 C121.457238,21.3968478 121.471116,22.4983092 121.491471,23.5646127 C121.568263,27.6364578 121.660322,31.7929596 123.03472,35.627026 C123.505189,36.9380473 124.132943,38.3041185 123.841965,39.6664889 C123.550524,41.0288593 121.755618,42.0988636 120.7365,41.1486738 C120.44876,40.8808258 120.283148,40.509817 120.131414,40.147135" id="Fill-15" fill="#000000"></path>
                <path d="M5.45114686,38.5921824 C4.48291556,35.7346741 4.7017275,32.6287472 4.94228186,29.6213551 C3.94906992,29.547801 3.86903933,31.0804098 3.23203288,31.8460204 C2.29202045,32.975238 0.248233596,31.8936686 0.0326598805,30.4397026 C-0.18337644,28.9857365 0.712688554,27.6242913 1.56619393,26.4275334 L6.30696526,19.7771305 C7.75584268,17.7439836 9.20749572,15.708061 10.8182847,13.8002799 C12.4258355,11.895737 14.1860458,10.1262746 15.9444056,8.35912526 C16.7724678,7.52643708 17.6898126,6.64795106 18.8546508,6.49575417 C20.0190264,6.34401988 21.3693691,7.37100196 21.0515598,8.50160746 C20.9368338,8.91008726 20.6379913,9.23714867 20.3488635,9.54801892 C18.7033791,11.3147057 17.05882,13.081855 15.4133356,14.8490043 C9.41613037,21.2916978 7.22754829,31.0420137 9.89538867,39.4294966 C10.2557576,40.5605647 8.76848401,41.5903224 7.6360281,41.2341169 C6.50357219,40.8774488 5.83187039,39.716774 5.45114686,38.5921824" id="Fill-17" fill="#000000"></path>
                <path d="M35.5782675,16.8908483 C35.4265332,18.1953931 33.8994757,18.8629314 32.5870666,18.918444 C31.2751201,18.9734939 29.8965586,18.6931556 28.6873103,19.2043336 C28.183534,19.4175943 27.7126025,19.7983178 27.5654943,20.3252244 C27.4794498,20.6328564 27.510907,20.9594552 27.5428267,21.2768019 C27.7829184,23.6582901 28.0234728,26.038853 28.2635645,28.4203412 C28.4157614,29.923806 28.639662,31.5748416 29.7693423,32.5777682 C30.7051913,33.4081434 31.2663306,34.7126882 31.0105103,35.9372024 C30.7551526,37.161254 29.5741232,38.1854605 28.3287918,38.074898 C26.7022742,37.9296401 25.7636496,36.1879341 25.2422943,34.6400593 C24.0964228,31.2389907 23.5251062,27.645016 23.5602642,24.0556674 C23.5672032,23.3548215 23.5880205,22.6151168 23.251707,22.0003154 C22.9144682,21.385514 22.0716028,20.9867489 21.4901089,21.3790375 C20.5389939,22.0197448 19.5110866,22.6151168 18.3730795,22.7557486 C17.2346097,22.8959178 15.9605968,22.4804989 15.3800281,21.4914504 C14.7994594,20.5028645 15.244485,18.9697931 16.3565863,18.6903799 C17.8174914,18.3235345 19.2571168,17.8706447 20.665285,17.3363364 C21.8694446,16.8792832 23.2896405,15.8953233 22.91123,14.66387 C22.6174761,13.7072038 23.1883301,12.5696593 24.130193,12.2333458 C25.0725184,11.8965697 26.2350436,12.4151493 26.6134541,13.3412836 C26.745759,13.6651068 26.7961829,14.0314896 27.0122193,14.3067393 C27.2648013,14.6282495 27.6917853,14.7563909 28.0970269,14.80774 C29.5713476,14.9946323 31.0373414,14.4126757 32.5232271,14.4080497 C34.0081877,14.4034237 35.7498938,15.4151398 35.5782675,16.8908483" id="Fill-19" fill="#000000"></path>
                <path d="M226.296426,28.2223927 C226.288099,27.8717385 226.281623,27.5113696 226.402363,27.1819951 C226.86543,25.9167717 228.89025,26.0490766 229.717849,27.1126044 C230.544524,28.1761323 230.537122,29.6412009 230.556089,30.9883053 C230.568117,31.8556888 230.675903,32.8535268 231.392015,33.3415746 C231.935113,33.7121208 232.65215,33.6579961 233.305348,33.5835168 C237.370254,33.1195244 241.409254,32.4357949 245.400143,31.5374169 C246.520572,31.2848348 247.659041,31.0137485 248.803525,31.099793 C249.948934,31.1849122 251.126725,31.6910016 251.72441,32.6712606 C252.322095,33.6519822 252.119474,35.1327794 251.121174,35.6999325 C250.752941,35.9085672 250.325494,35.9802709 249.907762,36.0482737 C243.677867,37.0618403 237.448434,38.076332 231.219001,39.0903612 C229.536508,39.3642231 227.33266,39.3688491 226.685014,37.7918303 C226.507837,37.3611454 226.494884,36.8832749 226.484244,36.4174322 C226.421792,33.6857524 226.358878,30.9540725 226.296426,28.2223927" id="Fill-21" fill="#000000"></path>
                <path d="M307.879281,29.3274162 C307.93063,29.8501593 308.043506,30.3775285 308.310891,30.8294931 C308.829008,31.7075166 309.826384,32.1599438 310.608648,32.8126788 C311.391838,33.4658764 311.983046,34.6506066 311.382123,35.4740427 C310.949125,36.068027 310.097933,36.1679495 309.369793,36.0671017 C306.683449,35.6960929 304.591088,33.2965632 303.936503,30.6652685 C303.281917,28.0335113 303.83658,25.2393799 304.783069,22.6987557 C305.046754,21.9909708 303.903195,21.6782501 303.158865,21.803616 C302.225791,21.9609015 301.271901,22.1218879 300.33929,21.9627519 C299.407142,21.8031534 298.482858,21.2586678 298.134979,20.378794 C297.786638,19.4993827 298.232589,18.3128021 299.152709,18.0926023 L309.703331,15.5649311 C310.86123,15.287831 312.094534,15.0130439 313.220976,15.3983935 C314.347418,15.7832805 315.237006,17.1072547 314.717039,18.1781842 C314.492213,18.6421765 314.059678,18.9641493 313.650735,19.2773326 C310.44211,21.730987 307.482367,25.3078454 307.879281,29.3274162" id="Fill-23" fill="#000000"></path>
                <path d="M202.459663,33.6837632 C202.716409,34.4128279 202.483719,35.2330258 202.089117,35.8973259 C201.527978,36.8419643 200.473239,37.6311677 199.397684,37.4086549 C198.254588,37.1718014 197.624521,35.9537636 197.268315,34.8425875 C195.783817,30.2040518 196.290369,25.193582 196.812187,20.3519629 C196.859373,19.9148016 196.913498,19.4582109 197.160066,19.0950664 C197.805399,18.1448767 199.411099,18.4566721 200.082801,19.3883577 C200.754503,20.3195806 200.763755,21.5575103 200.746176,22.7061574 C200.717957,24.5228054 200.690201,26.3394535 200.662445,28.1565641 C200.641628,29.5170841 200.646254,30.9710501 201.394748,32.1076695 C201.744939,32.6392021 202.248716,33.0828399 202.459663,33.6837632" id="Fill-25" fill="#000000"></path>
                <g id="Group-29" transform="translate(354.817682, 7.760254)">
                    <mask id="mask-6" fill="white">
                        <use xlink:href="#path-5"></use>
                    </mask>
                    <g id="Clip-28"></g>
                    <path d="M4.90721644,0.301525639 C5.83982719,0.44632086 6.48053448,1.38679589 6.60404989,2.32218227 C6.7275653,3.25803125 6.45277821,4.19434284 6.19603269,5.10243556 C5.2393665,8.48453735 4.48717152,11.9249273 3.94453639,15.3976996 C3.77892397,16.4566014 2.22457271,16.7503553 1.36597869,16.1091854 C-0.0144332616,15.0780399 0.180785854,12.9907682 0.51663675,11.3008738 C1.01532444,8.79124416 1.51401214,6.28115192 2.01269983,3.77105969 C2.17646184,2.95086184 2.34855073,2.10707116 2.80560401,1.40668789 C3.2631199,0.705842007 4.08054213,0.172921577 4.90721644,0.301525639" id="Fill-27" fill="#000000" mask="url(#mask-6)"></path>
                </g>
                <path d="M322.611247,10.6868125 C322.788424,9.81665338 323.913016,9.4114118 324.747554,9.71580559 C325.58163,10.020662 326.142307,10.8066271 326.529507,11.6055451 C327.028195,12.6357654 327.328888,13.7612823 327.410306,14.9029903 C327.474146,15.7972049 327.123491,16.9833229 326.226964,16.9675944 C325.718561,16.9588049 325.329511,16.5369095 324.890499,16.2797014 C324.451488,16.0224933 323.718259,16.0451609 323.613711,16.5429234 C323.406464,17.5338223 322.032528,17.8793879 321.141552,17.3982792 C320.251038,16.9167079 319.769467,15.930435 319.414187,14.9825583 C319.157904,14.3002166 318.934928,13.5762405 319.027912,12.8531896 C319.120895,12.1301387 319.612181,11.4112512 320.327368,11.2729325 C321.166533,11.1100957 322.440546,11.5250519 322.611247,10.6868125" id="Fill-30" fill="#000000"></path>
                <path d="M208.884639,28.9705168 C209.190883,28.8308102 209.541537,28.8377493 209.877851,28.8470014 C211.616319,28.8960375 213.354787,28.9441483 215.093255,28.9931844 C216.394561,29.0297302 217.997023,29.2730602 218.425858,30.5031256 C218.715911,31.3348886 218.262558,32.2846157 217.564951,32.8230874 C216.86688,33.3610965 215.975441,33.5720442 215.108058,33.7293297 C213.685086,33.9870004 212.189948,34.1317957 210.814625,33.6839945 C209.439302,33.2361933 208.213862,32.0630281 208.104225,30.6206272 C208.054726,29.9743686 208.294818,29.2397526 208.884639,28.9705168" id="Fill-32" fill="#000000"></path>
                <path d="M37.3496266,13.3833806 C36.0561843,11.3997324 34.8404595,9.36519761 33.7070784,7.2857902 C33.2000638,6.35595508 34.0804003,5.1356043 35.1281996,4.97831876 C36.1759989,4.82103321 37.1965045,5.41501744 37.9695167,6.13991876 C39.6760648,7.73960526 40.6336562,10.1076779 40.5175425,12.4442934 C40.4680438,13.4412062 39.9568658,14.6647952 38.9585652,14.6476789 C38.2466168,14.6356511 37.738677,13.9792153 37.3496266,13.3833806" id="Fill-34" fill="#000000"></path>
                <path d="M217.427002,21.0303725 C216.509195,22.0050802 214.881289,21.6160298 213.627631,22.0869612 C212.322623,22.5773221 210.689629,22.3751639 209.770897,21.326902 C208.852164,20.2781775 209.015464,18.3680833 210.252931,17.7255256 C210.684541,17.501625 211.179528,17.4442621 211.661099,17.3767218 C213.15855,17.1657741 214.738807,16.8280728 216.140499,17.397539 C217.541265,17.9674678 218.464161,19.9293737 217.427002,21.0303725" id="Fill-36" fill="#000000"></path>
                <path d="M263.184546,11.058919 C263.895107,11.5404903 264.508058,12.1654691 264.975751,12.8848191 C265.143676,13.1438777 265.298186,13.4343933 265.28107,13.7424879 C265.228333,14.6848134 263.881691,14.7958385 262.960183,14.5936803 C262.058104,14.3956855 261.118554,14.1616076 260.430661,13.545881 C259.742768,12.930617 259.414782,11.811114 259.958342,11.0658581 C260.661038,10.103178 262.19781,10.390918 263.184546,11.058919" id="Fill-38" fill="#000000" transform="translate(262.484157, 12.562596) rotate(-6.000000) translate(-262.484157, -12.562596) "></path>
                <path d="M358.01724,36.1555223 C357.883085,36.4270712 357.689716,36.6958444 357.402439,36.7916035 C357.179463,36.8660829 356.936133,36.8239859 356.708069,36.7689359 C355.279547,36.4252207 353.800137,35.1678616 354.16467,33.74489 C354.481091,32.5078855 356.214933,32.005497 357.269671,32.724847 C358.32441,33.4446597 358.582543,35.0110387 358.01724,36.1555223" id="Fill-40" fill="#000000"></path>
            </g>
        </g>
    </g>
</svg>