<?xml version="1.0" encoding="UTF-8"?>
<svg width="26px" height="44px" viewBox="0 0 26 44" version="1.1" xmlns="http://www.w3.org/2000/svg" xmlns:xlink="http://www.w3.org/1999/xlink">
    <!-- Generator: Sketch 48.2 (47327) - http://www.bohemiancoding.com/sketch -->
    <title>message_hand_arrow</title>
    <desc>Created with Sketch.</desc>
    <defs>
        <polygon id="path-1" points="0.00010809135 0.000283392067 25.79 0.000283392067 25.79 33.0887524 0.00010809135 33.0887524"></polygon>
    </defs>
    <g id="Assets" stroke="none" stroke-width="1" fill="none" fill-rule="evenodd">
        <g id="message_hand_arrow">
            <g id="Page-1" transform="translate(0.000000, 5.000000)">
                <mask id="mask-2" fill="white">
                    <use xlink:href="#path-1"></use>
                </mask>
                <g id="Clip-2"></g>
                <path d="M9.0405,19.5298 C9.0985,19.7848 9.3005,20.0078 9.4365,20.2448 C9.6315,19.9948 9.9095,19.7748 10.0075,19.4918 C10.5785,17.8338 10.1225,16.1928 9.7995,14.5708 C9.6355,13.7508 9.2995,12.9608 8.9865,12.1778 C8.8915,11.9408 8.6145,11.7768 8.4215,11.5798 C8.2865,11.8098 8.0405,12.0378 8.0345,12.2718 C8.0095,13.2598 8.0565,14.2508 8.0765,15.2398 C8.4545,16.7638 8.7295,18.1508 9.0405,19.5298 M12.6255,6.7298 C13.8085,7.5058 15.0705,8.0848 15.9065,9.0368 C18.1625,11.6078 19.7345,14.6228 20.9575,17.8158 C21.0435,18.0428 21.1985,18.2438 21.3215,18.4568 C21.4575,18.2418 21.6695,18.0428 21.7155,17.8098 C21.9795,16.4948 23.0825,15.8478 24.4745,16.3858 C24.7125,16.4778 25.0115,16.8498 24.9995,17.0798 C24.9155,18.7598 24.6475,20.4368 24.6525,22.1158 C24.6595,24.8448 24.5505,27.6048 25.6615,30.2118 C26.0525,31.1308 25.5135,32.5178 24.6095,32.9078 C23.7855,33.2628 22.8795,33.1548 22.0955,32.0458 C21.3045,30.9258 20.5335,29.7768 19.6055,28.7778 C18.2615,27.3328 16.9895,25.7528 14.8825,25.2728 C14.6135,25.2118 14.2855,24.5788 14.3045,24.2268 C14.3775,22.8388 15.0825,22.2568 16.5285,22.3228 C17.0425,22.3458 17.5475,22.5508 18.0615,22.6438 C18.3525,22.6968 18.6525,22.6928 18.9485,22.7148 C18.8945,22.4288 18.9045,22.1128 18.7795,21.8638 C17.4295,19.1898 16.0835,16.5118 14.6785,13.8668 C14.1285,12.8318 13.4445,11.8648 12.7845,10.8918 C12.6855,10.7458 12.3875,10.7338 12.1815,10.6598 C12.1865,10.8318 12.1495,11.0178 12.2045,11.1728 C12.5425,12.1448 12.8945,13.1138 13.2555,14.0788 C14.2595,16.7588 13.2285,21.3348 10.3185,22.6958 C8.0865,23.7398 5.8855,23.5358 5.3935,20.6368 C5.1015,18.9238 4.5915,17.2168 4.5455,15.4978 C4.4875,13.2778 4.7455,11.0578 6.1355,9.1198 C6.3975,8.7528 6.3145,7.7898 6.0085,7.4218 C4.4845,5.5918 2.9295,3.7718 0.7585,2.6258 C-0.2915,2.0708 -0.2325,0.9448 0.8195,0.3338 C1.8805,-0.2822 2.9475,0.0488 3.8495,0.5708 C5.9905,1.8108 7.5935,3.6558 9.0765,5.6128 C9.3995,6.0388 9.8405,6.5268 10.3145,6.6498 C11.0055,6.8278 11.7745,6.7018 12.6255,6.7298" id="Fill-1" fill="#000000" mask="url(#mask-2)"></path>
            </g>
        </g>
    </g>
</svg>